<svg width="25" height="22" viewBox="0 0 25 22" fill="none" xmlns="http://www.w3.org/2000/svg">
<path d="M19.6924 1.22705C19.6924 2.43892 19.6943 3.20069 19.7412 3.7749C19.7856 4.31774 19.8577 4.47636 19.8799 4.52002C20.0451 4.84424 20.3096 5.10873 20.6338 5.27393C20.6774 5.29606 20.8359 5.36823 21.3789 5.4126C21.9531 5.45946 22.7149 5.46143 23.9268 5.46143H24.6152V10.3843H23.9268C22.7957 10.3843 21.7987 10.3869 20.9775 10.3198C20.5355 10.2837 20.0861 10.2227 19.6367 10.1128C19.6716 10.4038 19.6924 10.7001 19.6924 11.0005C19.6921 15.0787 16.3859 18.3843 12.3076 18.3843C11.4226 18.3843 10.5745 18.2274 9.78809 17.9419C9.84587 18.7399 9.8457 19.6956 9.8457 20.7729V21.4614H4.92285V20.7729C4.92285 19.5611 4.92089 18.7993 4.87402 18.2251C4.82965 17.682 4.75748 17.5236 4.73535 17.48C4.57022 17.1559 4.30646 16.8913 3.98242 16.7261C3.93919 16.7041 3.78041 16.6319 3.23633 16.5874C2.66213 16.5406 1.90027 16.5386 0.688477 16.5386H0V11.6157H0.688477C1.81966 11.6157 2.81739 11.6131 3.63867 11.6802C4.08016 11.7163 4.52874 11.7765 4.97754 11.8862C4.94279 11.5958 4.92287 11.3003 4.92285 11.0005C4.92285 6.9221 8.22924 3.61576 12.3076 3.61572C13.1922 3.61572 14.0401 3.77193 14.8262 4.05713C14.7685 3.25929 14.7695 2.30394 14.7695 1.22705V0.538574H19.6924V1.22705ZM12.3076 8.53857C10.9482 8.53862 9.8457 9.64104 9.8457 11.0005C9.84597 12.3597 10.9483 13.4614 12.3076 13.4614C13.6669 13.4614 14.7693 12.3597 14.7695 11.0005C14.7695 9.64102 13.6671 8.53857 12.3076 8.53857Z" fill="url(#paint0_linear_20_907)"/>
<defs>
<linearGradient id="paint0_linear_20_907" x1="6.15384" y1="5.46165" x2="22.1538" y2="65.154" gradientUnits="userSpaceOnUse">
<stop stop-color="#20E988"/>
<stop offset="1" stop-color="#DAFBEB"/>
</linearGradient>
</defs>
</svg>
